<?xml version="1.0" encoding="UTF-8"?>
<svg xmlns="http://www.w3.org/2000/svg" xmlns:xlink="http://www.w3.org/1999/xlink" width="50pt" height="50pt" viewBox="0 0 50 50" version="1.1">
<g id="surface21899873">
<path style=" stroke:none;fill-rule:nonzero;fill:rgb(100%,100%,100%);fill-opacity:1;" d="M 7.382812 1 C 6.445312 1 5.542969 1.339844 4.921875 2.007812 C 4.300781 2.675781 4 3.605469 4 4.636719 L 4 45.363281 C 4 46.390625 4.300781 47.324219 4.921875 47.992188 C 5.542969 48.660156 6.445312 49 7.382812 49 C 8.375 49 9.210938 48.714844 10.015625 48.253906 L 28.144531 37.875 L 32.5 35.386719 L 44.769531 28.363281 L 44.773438 28.363281 C 45.867188 27.730469 47 26.625 47 25 C 47 23.375 45.867188 22.269531 44.769531 21.636719 L 42.203125 20.160156 C 39.902344 12.566406 32.84375 7.019531 24.5 7.019531 C 23.003906 7.019531 21.554688 7.21875 20.160156 7.554688 L 10.015625 1.746094 C 9.214844 1.285156 8.375 1 7.386719 1 Z M 7.382812 3 C 8.0625 3 8.375 3.109375 9.011719 3.480469 L 9.015625 3.480469 L 17.574219 8.378906 C 10.796875 11.125 6 17.765625 6 25.519531 C 6 32.875 10.304688 39.238281 16.539062 42.214844 L 9.019531 46.519531 L 9.015625 46.519531 C 8.375 46.890625 8.0625 47 7.382812 47 C 6.890625 47 6.601562 46.863281 6.386719 46.628906 C 6.175781 46.398438 6 46.011719 6 45.363281 L 6 4.632812 C 6 3.984375 6.175781 3.601562 6.386719 3.367188 C 6.601562 3.136719 6.890625 3 7.382812 3 Z M 24.5 9.019531 C 33.625 9.019531 41 16.394531 41 25.519531 C 41 26.492188 40.894531 27.441406 40.734375 28.367188 L 35.542969 31.339844 C 36.46875 29.59375 37 27.609375 37 25.5 C 37 18.609375 31.390625 13 24.5 13 C 17.609375 13 12 18.609375 12 25.5 C 12 32.207031 17.316406 37.683594 23.949219 37.972656 L 18.707031 40.972656 C 12.457031 38.628906 8 32.601562 8 25.519531 C 8 16.394531 15.375 9.019531 24.5 9.019531 Z M 24.5 15 C 30.3125 15 35 19.6875 35 25.5 C 35 31.3125 30.3125 36 24.5 36 C 18.6875 36 14 31.3125 14 25.5 C 14 19.6875 18.6875 15 24.5 15 Z M 25 19 L 25 26.042969 C 24.601562 25.816406 24.140625 25.675781 23.65625 25.675781 C 22.171875 25.675781 21 26.875 21 28.335938 C 21 29.824219 22.167969 31 23.625 31 C 25.109375 31 26.5 29.835938 26.5 28.375 L 26.5 21.875 L 29 21.875 L 29 19 Z M 42.777344 22.800781 L 43.769531 23.371094 C 44.59375 23.84375 45 24.230469 45 25 C 45 25.769531 44.59375 26.152344 43.773438 26.628906 L 42.929688 27.113281 C 42.972656 26.585938 43 26.054688 43 25.519531 C 43 24.59375 42.910156 23.6875 42.777344 22.800781 Z M 42.777344 22.800781 "/>
</g>
</svg>
